<?xml version="1.0" encoding="UTF-8"?>
<svg id="_Слой_1" data-name="Слой 1" xmlns="http://www.w3.org/2000/svg" viewBox="0 0 75 73.15">
  <defs>
    <style>
      .cls-1 {
        fill: #fff;
        fill-rule: evenodd;
      }
    </style>
  </defs>
  <path class="cls-1" d="M37.5,0C16.78,0,0,16.78,0,37.5c0,16.59,10.73,30.61,25.64,35.58,1.88,.33,2.58-.8,2.58-1.78,0-.89-.05-3.84-.05-6.98-9.42,1.73-11.86-2.3-12.61-4.41-.42-1.08-2.25-4.41-3.84-5.3-1.31-.7-3.19-2.44-.05-2.48,2.95-.05,5.06,2.72,5.77,3.84,3.38,5.67,8.77,4.08,10.92,3.09,.33-2.44,1.31-4.08,2.39-5.02-8.34-.94-17.06-4.17-17.06-18.52,0-4.08,1.45-7.45,3.84-10.08-.37-.94-1.69-4.78,.37-9.94,0,0,3.14-.98,10.31,3.84,3-.84,6.19-1.27,9.38-1.27s6.37,.42,9.37,1.27c7.17-4.88,10.31-3.84,10.31-3.84,2.06,5.16,.75,9,.37,9.94,2.39,2.62,3.84,5.95,3.84,10.08,0,14.39-8.77,17.58-17.11,18.52,1.36,1.17,2.53,3.42,2.53,6.94,0,5.02-.05,9.05-.05,10.31,0,.98,.7,2.16,2.58,1.78,14.81-4.97,25.55-19.03,25.55-35.58C75,16.78,58.22,0,37.5,0Z"/>
</svg>