<?xml version="1.0" encoding="UTF-8"?>
<svg id="_Слой_1" data-name="Слой 1" xmlns="http://www.w3.org/2000/svg" viewBox="0 0 75 75">
  <defs>
    <style>
      .cls-1 {
        fill: #fff;
      }

      .cls-2 {
        fill: #b7729f;
        fill-rule: evenodd;
      }
    </style>
  </defs>
  <path class="cls-2" d="M37.5,0C58.21,0,75,16.79,75,37.5s-16.79,37.5-37.5,37.5S0,58.21,0,37.5,16.79,0,37.5,0h0Z"/>
  <path class="cls-1" d="M30.05,49.99c.55,2.02,.49,3.9-.08,5.6-.06,.19-.13,.38-.21,.56-.07,.18-.16,.37-.24,.55-.43,.9-1.02,1.75-1.73,2.52-2.18,2.38-5.22,3.28-6.53,2.52-1.41-.82-.7-4.17,1.82-6.84,2.72-2.87,6.63-4.72,6.63-4.72h0c.11-.07,.23-.13,.34-.2h0ZM61.02,16.05c-1.7-6.66-12.74-8.85-23.19-5.14-6.22,2.21-12.95,5.68-17.8,10.21-5.76,5.38-6.67,10.07-6.3,12.03,1.33,6.91,10.8,11.43,14.69,14.78v.02c-1.15,.56-9.55,4.82-11.51,9.16-2.07,4.58,.33,7.87,1.92,8.32,4.93,1.37,9.99-1.1,12.71-5.15,2.62-3.92,2.41-8.97,1.27-11.49,1.57-.42,3.41-.6,5.74-.33,6.58,.77,7.87,4.88,7.62,6.59-.25,1.72-1.63,2.66-2.09,2.95-.46,.29-.6,.38-.56,.6,.06,.31,.27,.3,.66,.23,.54-.09,3.45-1.4,3.58-4.57,.16-4.03-3.7-8.54-10.54-8.42-2.82,.05-4.59,.32-5.86,.79-.09-.11-.19-.21-.29-.32-4.23-4.51-12.04-7.7-11.71-13.76,.12-2.2,.89-8.01,15.01-15.04,11.57-5.77,20.83-4.18,22.44-.66,2.29,5.02-4.95,14.36-16.97,15.71-4.58,.51-6.99-1.26-7.59-1.92-.63-.7-.73-.73-.96-.6-.38,.21-.14,.83,0,1.19,.36,.93,1.83,2.59,4.34,3.41,2.21,.72,7.58,1.12,14.08-1.39,7.28-2.82,12.97-10.65,11.3-17.2h0Z"/>
</svg>