<?xml version="1.0" encoding="UTF-8"?>
<svg id="_Слой_1" data-name="Слой 1" xmlns="http://www.w3.org/2000/svg" viewBox="0 0 75 61.89">
  <defs>
    <style>
      .cls-1 {
        fill: #17a1e6;
      }
    </style>
  </defs>
  <path class="cls-1" d="M0,9.58H17.53v5.16H0v-5.16ZM0,0H17.53V5.16H0V0ZM31.46,19.08H0v5.16H30.28c3.32,0,11.05,.07,13.92,4.72v-2.87c-1.4-4.57-5.53-7-12.75-7h0Zm.07,9.58H0v5.16H30.28c7.37,0,12.01,.29,13.92,1.33v-2.28c-1.47-3.61-7.66-4.2-12.67-4.2h0Zm-.07,24.31H0v-5.16H30.28c3.32,0,11.05-.07,13.92-4.72v2.87c-1.4,4.57-5.53,7-12.75,7h0Zm.07-9.58H0v-5.16H30.28c7.37,0,12.01-.29,13.92-1.33v2.28c-1.47,3.61-7.66,4.2-12.67,4.2h0Zm20.33,18.49h23.13v-3.17h-22.47c-1.99,0-6.7-.07-8.4-2.8v1.77c.81,2.73,3.32,4.2,7.74,4.2Zm-.07-5.82h23.13v-3.17h-22.4c-4.49,0-7.29-.15-8.4-.81v1.4c.88,2.21,4.64,2.58,7.66,2.58h0Z"/>
</svg>